<?xml version="1.0" encoding="UTF-8"?>
<svg id="Calque_2" data-name="Calque 2" xmlns="http://www.w3.org/2000/svg" viewBox="0 0 101.46 99.15">
  <defs>
    <style>
      .cls-1 {
        fill: #fff;
      }
    </style>
  </defs>
  <g id="Layer_1" data-name="Layer 1">
    <g>
      <path class="cls-1" d="M98.73,33.52c-1.41-4.04-3.39-7.96-5.94-11.67C78.59,1.29,51.37-5.56,29.11,4.73c-.77.35-1.53.73-2.28,1.13-.38.2-.75.4-1.13.61-.56.31-1.12.64-1.67.97-.55.34-1.1.68-1.65,1.04C7.85,18.04.01,33.66,0,49.57c0,9.55,2.8,19.2,8.68,27.71.22.33.45.65.68.97.04.05.07.1.11.15.23.32.47.64.71.95.01.01.02.03.03.04.25.33.51.65.76.97,0,0,0,0,0,0,.26.32.53.64.8.96.01.01.02.02.03.04.54.64,1.1,1.26,1.67,1.86,0,0,0,0,0,0,2.3,2.44,4.81,4.61,7.49,6.5.01,0,.02.02.04.03.65.46,1.3.9,1.97,1.32.03.02.06.04.1.06.32.21.65.41.98.61.02.01.04.02.06.04.31.19.62.37.94.55.04.02.08.05.12.07.31.18.63.35.95.53.07.04.13.07.2.11.3.16.59.32.89.47.03.02.06.03.1.05.3.15.61.3.91.45.1.05.19.09.29.14.29.14.59.28.88.41.1.05.2.09.31.14.22.1.44.19.66.29.12.05.24.1.36.15.27.11.55.23.82.34.15.06.29.12.44.17.18.07.36.14.54.21.24.09.48.18.72.26.16.06.32.11.48.17.18.06.36.12.54.18.13.04.27.09.4.13.31.1.62.2.94.3.1.03.21.06.31.09.66.2,1.33.38,2,.55.05.01.11.03.16.04.45.11.91.22,1.36.32,0,0,.01,0,.02,0,.38.08.75.16,1.13.24.06.01.12.02.18.04.35.07.7.13,1.05.19.09.02.17.03.26.05.34.06.68.11,1.02.16.1.01.19.03.29.04.34.05.68.09,1.02.14.09.01.18.02.27.03.3.04.61.07.91.1.1.01.2.02.3.03.31.03.63.06.94.08.11,0,.22.02.32.02.32.02.65.04.97.06.12,0,.24.01.36.02.32.01.65.03.97.03.12,0,.23,0,.35,0,.33,0,.66.01.99.01h0c.22,0,.45,0,.67,0,.18,0,.36,0,.54,0,.22,0,.43-.01.65-.02.19,0,.37-.01.56-.02.21,0,.43-.02.64-.04.19-.01.38-.02.57-.04.21-.01.42-.03.63-.05.2-.02.39-.03.59-.05.2-.02.41-.04.61-.06.21-.02.41-.05.62-.07.19-.02.39-.05.58-.07.23-.03.47-.06.7-.1.17-.02.33-.05.5-.07.4-.06.8-.13,1.19-.2.05,0,.1-.02.15-.03.27-.05.55-.1.82-.15.02,0,.05,0,.07-.01.53-.11,1.06-.22,1.59-.34.06-.01.13-.03.19-.04.22-.05.45-.11.67-.16.13-.03.26-.07.4-.1.21-.05.41-.11.62-.16.17-.05.34-.09.5-.14.28-.08.55-.16.83-.24.22-.07.43-.13.65-.2.16-.05.31-.1.46-.15.21-.07.42-.14.63-.21.14-.05.28-.1.42-.14.3-.11.61-.22.91-.33.05-.02.1-.04.16-.06.34-.13.68-.26,1.02-.4.1-.04.2-.08.3-.12.27-.11.54-.22.81-.34.09-.04.18-.08.27-.12.71-.31,1.42-.64,2.12-.98.07-.03.14-.07.21-.1.29-.15.59-.3.88-.45.07-.04.14-.07.2-.11.7-.37,1.4-.76,2.09-1.16.07-.04.15-.09.22-.13.27-.16.54-.33.81-.49.08-.05.16-.1.25-.15.34-.21.67-.42,1-.64,19.44-12.81,26.91-36.47,19.64-57.17ZM57.26,60.49c1.08.79,1.42,1.87.82,3.37-.96,2.41-3.68,4.18-6.97,4.18h-10.07s0,0,0,0c-.09,0-.17-.07-.17-.15,0,0,0,0,0,0,0-.02.02-.03.02-.05,0,0,0,0,0,0l5.65-14.2c.03-.08.12-.13.21-.13h9.78c.3,0,.58.02.85.07.18.03.35.07.52.12.25.07.48.17.69.28.14.07.28.16.4.25.28.2.51.45.69.72.06.09.11.19.16.29.21.45.28.96.22,1.5-.04.31-.12.64-.26.96-.48,1.21-1.28,2.08-2.55,2.8ZM75.33,61.66c-.66.31-1.4.53-2.25.69h0s-.02.01-.04.02l2,5.47s.02.03.02.05c0,.05-.03.1-.07.13-.02,0-.03,0-.05,0h-3.77c-.1,0-.19-.07-.22-.15l-.84-2.52-.99-2.98h-3.65l-2.19,5.52c-.03.08-.12.15-.22.15h-3.32c-.09,0-.15-.07-.15-.15v-.05l5.65-14.2c.03-.07.12-.13.22-.13h9.52c.63,0,1.18.07,1.65.2,2.17.59,2.66,2.42,1.77,4.58-.65,1.65-1.65,2.71-3.08,3.39ZM96.92,58.24c-1.2,3.02-3.56,4.25-7.12,4.25h-5.87l-2.12,5.36h-.02c-.03.08-.12.15-.22.15v.02h-3.3c-.09,0-.17-.07-.17-.15,0-.02,0-.03.02-.05l5.65-14.19c.03-.08.12-.13.21-.13h9.59c3.2,0,4.52,1.92,3.37,4.74ZM81.11,47.63c-.57-8.54-4.81-16.09-11.2-21.16-5.23-4.15-11.9-6.64-19.16-6.64,0,0,0,0,0,0,0,0,0,0,0,0-.07,0-.15,0-.22,0-6.74.05-12.96,2.24-17.98,5.91-7.42,5.42-12.23,14.08-12.23,23.82,0,3.88.76,7.58,2.14,10.98,2.34,5.76,6.47,10.64,11.73,13.97h0s0,0,.01,0l-6.59,15.5c-14.49-7.93-24.28-23.08-24.28-40.45,0-2.28.17-4.5.5-6.68.03,0,.07,0,.1,0-.03,0-.07,0-.1,0,6.49.52,12.86.19,13.68-2.65.03-.1.05-.2.06-.3.43-2.77-4.64-6.23-10.23-9.05,2.41-5.36,5.84-10.21,10.05-14.27.02.02.04.04.06.05-.02-.01-.04-.02-.06-.04,4.86,4.23,10.15,7.71,12.55,5.94.75-.55,1.08-1.51,1.08-2.75.02-2.71-1.52-6.75-3.46-10.7,5.1-2.8,10.77-4.71,16.82-5.5,0,.01,0,.02,0,.03,0,0,0-.01,0-.02,1.27,6.24,3.37,12.11,6.37,12.11,1.93,0,3.5-2.45,4.7-5.87.67-1.88,1.23-4.06,1.7-6.28,5.75.76,11.18,2.53,16.1,5.11-.02.05-.05.1-.07.15.01-.04.02-.09.03-.13-2.74,5.79-4.57,11.76-2.14,13.48.91.65,2.23.55,3.77-.07,2.55-1,5.72-3.41,8.72-6.11,4.09,3.83,7.47,8.35,9.95,13.38-.03.02-.06.04-.1.05.02-.01.03-.02.05-.04-5.69,3.12-10.75,6.88-9.83,9.67.92,2.78,7.29,2.92,13.77,2.18-.03,0-.05,0-.08,0,.04,0,.07,0,.11-.01.38,2.08.63,4.18.72,6.34h-17.02Z"/>
      <path class="cls-1" d="M55.12,56.47h-5.99l-1.22,3.05h0v.02s6.12,0,6.12,0c.8,0,1.75-.67,2.11-1.57.09-.22.12-.42.12-.61-.01-.54-.42-.9-1.15-.9Z"/>
      <path class="cls-1" d="M92.07,56.49h-5.79l-1.23,3.07h5.82c.14,0,.28,0,.42-.03.14-.02.27-.05.39-.08.19-.05.37-.13.53-.21.11-.06.21-.13.31-.2.34-.26.6-.6.76-1,.39-1-.03-1.55-1.22-1.55Z"/>
      <path class="cls-1" d="M73.58,56.49h-5.77l-1.22,3h5.79c.57,0,1.09-.13,1.5-.38.1-.06.2-.13.29-.21.09-.08.18-.16.25-.25.08-.09.15-.19.21-.29.03-.05.06-.1.09-.16s.05-.11.07-.17c.03-.06.05-.12.07-.18s.04-.12.05-.17c.03-.11.04-.21.04-.31,0-.1-.01-.18-.04-.27-.13-.41-.58-.62-1.33-.62Z"/>
      <path class="cls-1" d="M53.18,61.7h-6.13l-1.3,3.29h6.08c1.37,0,2.35-.59,2.72-1.57.39-1.03-.1-1.72-1.37-1.72Z"/>
    </g>
  </g>
</svg>