<?xml version="1.0" encoding="UTF-8"?>
<svg id="Calque_2" data-name="Calque 2" xmlns="http://www.w3.org/2000/svg" viewBox="0 0 127.95 104.46">
  <defs>
    <style>
      .cls-1 {
        fill: #fff;
        fill-rule: evenodd;
      }
    </style>
  </defs>
  <g id="Layer_1" data-name="Layer 1">
    <g>
      <g>
        <path class="cls-1" d="M24.6,75.94c1.4,0,.94.93.94.93v21.44c-1.93,6.95-8.76,5.96-8.76,5.96-1.23,0-1.17-.53-1.17-.53v-26.64c0-1.52,1.29-1.17,1.29-1.17h7.71ZM7.62,91.39H.88s-.88-.09-.88.88v5.52s.53,5,6.66,6.66h4.38s.53.17.79-.79v-6.16s.09-.58-.56-.58h-1.46s-1.23-.64-1.23-2.51v-2.28s.18-.73-.96-.73Z"/>
        <path class="cls-1" d="M44.17,81.4c0,1.4-.7,1.58-.7,1.58-4.65-.88-3.77,9.29-3.77,9.29,0,5,3.07,4.91,3.07,4.91,1.14,0,1.23,1.05,1.23,1.05v4.65c0,1.84-.7,1.46-.7,1.46-12.39,0-12.88-4.67-12.88-4.67-3.07-11.22,0-18.52,0-18.52,0-5.78,13.5-5.2,13.5-5.2l.26,5.46ZM47.86,104.35s13.5.58,13.5-5.2c0,0,3.07-7.3,0-18.52,0,0-.5-4.67-12.88-4.67,0,0-.7-.38-.7,1.46v4.64s.09,1.05,1.23,1.05c0,0,3.07-.09,3.07,4.91,0,0,.88,10.17-3.77,9.29,0,0-.7.18-.7,1.58l.26,5.46Z"/>
        <path class="cls-1" d="M67.14,75.94s-1.07-.44-1.07,1.07v20.7s.44,5.62,6.32,6.32h3.51v-9.65s0-.88,1.31-1.31h9.38s.88-.06.88.88v2.45s-.06.88-.88.88h-5.49s-1.2-.82-1.2,1.2v5.05s0,.86.86.86h6.94s8.88-.28,9.52-6.18c0,0,1.7-5.49-2.8-8.82,0,0,3.1-1.29,1.69-8.94,0,0-.53-4.5-9.23-4.5h-6.43s-.35.12-.35.82v5.38s-.12.99.94.99h4.79s.85-.06.85.85v1.9s.29.63-.63.63h-8.87s-1.25.88-1.25-1.25v-8.67s.56-.64-.64-.64h-8.16Z"/>
        <g>
          <path class="cls-1" d="M101.75,75.94s-1.15-.7-1.15,1.15v20.79s2.45,6.49,6.49,6.49h3.08s.53.34.53-1.5v-8.59s-.18-1.53,1.53-1.53h14.51s1.16.79,1.16-1.16v-4.32s-.02-.79-1.77-.79h-13.15s-2.32,1.14-2.32-2.32v-6.62s1.12-1.61-1.61-1.61h-7.29Z"/>
          <path class="cls-1" d="M127.89,81.49v-4.38s.5-1.17-1.42-1.17h-10.43s-1.23-.5-1.23,2.48v3.59s-.18,1.14,1.14,1.14h10.78s.74.26,1.16-1.66Z"/>
          <path class="cls-1" d="M127.89,102.72v-4.38s.5-1.17-1.42-1.17h-10.43s-1.23-.5-1.23,2.48v3.59s-.18,1.14,1.14,1.14h10.78s.74.26,1.16-1.66Z"/>
        </g>
      </g>
      <polygon class="cls-1" points="34.36 26.27 56.97 26.27 63.86 4.42 71.34 26.27 93.55 26.27 75.32 39.71 82.44 61.21 64.1 48.01 45.87 60.98 63.86 36.2 34.36 26.27"/>
      <polyline class="cls-1" points="28.57 27.91 46.8 41.23 40.02 62.5 58.25 37.61 28.92 27.56"/>
      <path class="cls-1" d="M59.77.33l-7.01,20.57h-29.45S21.91-3.06,59.77.33Z"/>
      <path class="cls-1" d="M68.3.33l6.54,20.57h29.33S111.77-2.01,68.3.33Z"/>
      <path class="cls-1" d="M22.44,30.13s-2.8,31.9,10.69,36.63l7.36-23.31-18.05-13.32Z"/>
      <path class="cls-1" d="M63.8,54.49l-19.98,14.72s22.09,4.56,40.84,0l-20.86-14.72Z"/>
      <path class="cls-1" d="M104.65,24.52s4.21,44.7-13.67,43.65l-8.76-26.82,22.44-16.83Z"/>
    </g>
  </g>
</svg>