<?xml version="1.0" encoding="UTF-8"?>
<svg id="Calque_2" data-name="Calque 2" xmlns="http://www.w3.org/2000/svg" viewBox="0 0 454.19 48.67">
  <defs>
    <style>
      .cls-1 {
        fill: #fff;
      }
    </style>
  </defs>
  <g id="Layer_1" data-name="Layer 1">
    <path class="cls-1" d="M44.05,24.57h12.72c18.61.47,50.41,10.16,32.51,23.39h57.83c0-7.33-8.95-20.56-31.8-24.1,22.85-3.54,31.8-16.54,31.8-23.86h-57.83c15.08,14.18-20.73,22.68-32.51,22.92h-12.72V0H0v47.96h44.05v-23.39h0ZM347.8,41.47c2.07,0,5.05-.66,4.99-3.07-.15-6.78-21.09-.87-21.1-14.11,0-8.03,8.33-10.57,15.42-10.57s16.12.99,16.9,10.05h-11.93c-.13-1.11-.59-1.89-1.3-2.48-.72-.59-2.05-.85-3.09-.85-2.34,0-3.84.72-3.84,2.41,0,4.76,21.19-.34,21.17,14.23,0,6.71-5.26,11.64-17.74,11.58-7.3-.03-15.6-2.46-15.57-11.9h11.17c.34,1.94,1.39,4.42,4.92,4.7h0ZM441.6,48.15V14.93h12.59v33.22h-12.59ZM441.6,1.42h12.59v8.59h-12.59V1.42ZM269.69,31.68l4.87,16.24h12.37l11.37-33.7h-13.2l-5.2,17.35h.23l-5.27-17.35h-10.96l-5.26,17.35h-.14l-5.2-17.35h-13.2l11.37,33.7h13.2l4.86-16.24h.17ZM162.09,1.41v46.43h13.42v-13.7l4.48-4.85,12.25,18.55h16.49l-18.85-28.23L206.85,1.41h-17.67l-13.66,14.41V1.41h-13.42ZM416.67,38.73v9.47h-12.93V1.24h12.93v23.1l8.06-9.37h13.8l-11.09,12.41,12.94,20.81h-14.25l-7.04-11.42-2.42,1.95h0Z"/>
    <path class="cls-1" d="M241.5,43.13v-15.98c0-7.62-2.68-13.27-16.16-13.2-12.08.06-16.5,4.26-17.3,11.36h11.59c.69-3.56,4.04-4.15,5.92-4.15,1.43,0,4.07.33,4.07,2.8,0,6.39-22.55,1.98-22.72,14.63,0,7.11,4.66,10.07,11.1,10.07,5.07,0,8.33-.68,11.8-3.03l1.54,2.53h10.74v-.41c-.67-1.18-.55-3.19-.58-4.61h0ZM223.65,41.23c-2.65.28-4.64-.68-4.64-2.38v-.02c0-4.43,5.5-3.92,9.92-6.07.33,4.69-.7,7.98-5.28,8.47ZM401.44,43.13v-15.98c0-7.62-2.68-13.27-16.16-13.2-12.08.06-16.5,4.26-17.3,11.36h11.58c.7-3.56,4.04-4.15,5.92-4.15,1.43,0,4.07.33,4.07,2.8,0,6.39-22.55,1.98-22.72,14.63,0,7.11,4.66,10.07,11.09,10.07,5.07,0,8.34-.68,11.81-3.03l1.54,2.53h10.74v-.41c-.67-1.18-.55-3.19-.58-4.61ZM383.59,41.23c-2.65.28-4.64-.68-4.64-2.38v-.02c0-4.43,5.5-3.92,9.92-6.07.32,4.69-.7,7.98-5.28,8.47ZM330.05,43.13v-15.98c0-7.62-2.68-13.27-16.16-13.2-12.08.06-16.5,4.26-17.3,11.36h11.58c.7-3.56,4.04-4.15,5.92-4.15,1.43,0,4.07.33,4.07,2.8,0,6.39-22.55,1.98-22.71,14.63,0,7.11,4.66,10.07,11.09,10.07,5.07,0,8.34-.68,11.81-3.03l1.54,2.53h10.74v-.41c-.67-1.18-.55-3.19-.58-4.61h0ZM312.2,41.23c-2.65.28-4.64-.68-4.64-2.38v-.02c0-4.43,5.5-3.92,9.92-6.07.32,4.69-.71,7.98-5.28,8.47Z"/>
  </g>
</svg>