<?xml version="1.0" encoding="UTF-8"?>
<svg id="Calque_2" data-name="Calque 2" xmlns="http://www.w3.org/2000/svg" viewBox="0 0 425.2 127.83">
  <defs>
    <style>
      .cls-1 {
        fill: #fff;
        fill-rule: evenodd;
      }
    </style>
  </defs>
  <g id="Layer_1" data-name="Layer 1">
    <path class="cls-1" d="M180.41,9.85c-5.78-5.64-12.51-8.71-20.63-9.4l-1.74-.17v-.13h-1.39l-1.58-.15h-56.23l-.06.15h-.09l-1.9,4.94-21.8,54.05c-.24.11-.53.22-.87.34C60.85,64.37,7.99,81.66.8,101.46c-5.46,15.03,18.27,19.81,33.67,22.25,39.63,6.28,80.98,4.81,122.69-.59,19.88-2.57,44.93-6.25,58.26-7.19,11.87-.84,47.41-.7,71.12-.79,1.9,0,2.17-.07,2.77-.68,1.48-1.5,2.23-1.54,3.37.33.39.65.65.72,2.54.72h22.89s1.49-3.11,2.4-4.35c1.02-1.39,2.62,0,4.69,2.68,1.16,1.51,1.5,1.67,3.4,1.67h34.46c1.9,0,2.27-.01,3.76-.12,4.5-.33,7.58-2.92,8.77-5.15,1.68-3.13,7.02-20.87,6.44-21.37-.87-.76-2.86.31-2.63-1.7.31-2.74,6.24-8.67,7.61-12.25.03-.08.06-.16.09-.25h1.06l-.86-5.83c1.9-1.94,11.54-5.87,18.16-9.55,13.45-7.49,25.6-21.47,16.69-29.57-5.65-5.14-17.07-8.3-26.35-9.96-5.81-1.04-14.04-2.25-16.16-2.56l-2.55-17.21h-90.86l-.12.15h-.01l-16.21,19.27-.57-9.6V.15h-.58v-.15h-85.24c-.8,3.39-1.57,6.26-2.55,9.53-.17.18-.34.28-.53.32ZM76.5,74.68h11.21c-.05.52-.13,1.2-.26,1.68-.14.51-.35.78-.56,1.09-3.87,5.68-12.98,28.69-12.98,28.69,0,0-2.88.14-5.24,0-8.55-.52-17.9-5.32-16.63-11.52,1.24-6.06,16.75-16.98,24.46-19.95ZM134.51,74.68h23.08l-20.52,31.92-5.45-6.21s2.44-1.12,4.15-2.14c5.16-3.11,8.54-10.88,7.03-15.92-.58-1.92-1.71-3.99-3.51-5.17-1.25-.81-3.33-1.81-4.79-2.48ZM185.4,74.68h20.65v.2c0,.42-.16.53-1.64,1.11-4.1,1.61-6.79,4.79-7.73,7.61-1.01,3.03-2.36,7.92-3.81,9.66-.73.88-1.65,1.74-1.65,1.74l-5.82-20.33ZM297.47,74.5l6.41-.02c0,.25,0,.56-.02.86-.08,1.21-1.76,4.67-2.73,5.04-1.55.58-3.21-2.79-3.49-4.57-.07-.45-.13-.94-.17-1.31ZM318.36,72.16c.84-.81,1.59-1.73,2.3-2.61.47-.46.97-.9,1.47-1.27l12.5-.03s.05.08.08.12v6.31h1.9c.09.16.12.3.05.43-.25.51-2.35-.28-4.38-.76-5.95-1.41-14.78.62-14.94-.57-.02-.12.38-.77,1.03-1.63ZM385.88,59.33l-5.47-36.86c3.51.45,14.49,1.91,20.65,3.16,11.85,2.4,16.04,8.51,11.42,16.1-1.36,2.23-6.05,6.62-9.08,8.49-5.69,3.51-14.95,7.91-17.52,9.11ZM228.83,73.94h-20.02l11.68-36.31h1.57l6.77,36.31ZM222.25,90.34h17.18s.08,1.07,0,1.87c-.16,1.69-1.3,2.8-1.76,3.1-1.37.91-15.38,2.75-18.15,2.64-.7-.03-.7-.36,0-1.87.88-1.9,2.73-5.74,2.73-5.74ZM186.85,4.25s-3.17,12.78-5.07,14.64c-1.15,1.13-1.53-1.46-2.59-3.51-3.39-6.53-11.65-9.11-20.11-10.73-1.88-.36-2.3-.4-4.21-.4h-53.13l-26.69,66.17h42.22v-1.41l4.69-10.31,4.53,11.72h77.73l18.95-53.29s.7.05,1.11.3c.76.45.49,1.65.3,2.98-.5,3.53,10.22,50.01,10.22,50.01h75.91c1.91,0,2.19-.02,2.81-.22,1.67-.53,3-2.22,4.58-4.48,1.09-1.56,1.42-1.74,3.33-1.74h17.54v6.44h44.22l-9.82-66.17h-85.12l-21.98,26.98-1.61-26.98h-77.83ZM262.13,41.73l28.06-33.96h34.91l-55.6,58.56h-32.02l-11.58-58.56h34.61s-.19,6.24,0,12.65c.31,10.43,1.61,21.31,1.61,21.31ZM201.57,66.33h-33.72l22.78-58.56,31.41.6s-1.13,1.98-2.22,4.08c-3.6,6.94-18.25,53.88-18.25,53.88ZM340.29,59.72c-.81-.38-1.11-.42-3.01-.42h-20.52l-4.87,7.03h-36.3l54.84-58.56h38.03l8.59,58.56h-35.14s.54-4,0-5.47c-.32-.87-1.03-.85-1.63-1.14ZM148.42,44.15l14.35,22.17h-33.03l-7.39-17.62-7.87,17.62h-32.72L104.92,7.77s46.58-.19,54.88,1.17c4.75.78,12.36,3.41,14.93,7.03,7.1,9.99-.96,19.4-12.01,23.42-5.33,1.94-14.3,4.76-14.3,4.76ZM164.85,62.69s-3.74-7.17-7.78-12.76c-1.34-1.85-2.71-3.53-2.71-3.53,0,0,5.88-1.45,11.26-3.79,4.8-2.09,9.21-4.9,9.21-4.9l-9.98,24.98ZM135.83,32.36c1.9,0,2.22-.04,3.2-.37,1.73-.59,3.45-2.18,4.07-3.14,1.72-2.67,1.09-6.48-2.9-7.83-.98-.33-1.3-.37-3.2-.37h-5.71s-3.21,4.94-3.71,8.9c-.19,1.47,0,2.81,0,2.81h8.25ZM139.09,24.75s.14,1.34,0,1.96c-.09.4-1,1.06-1.86,1.34-.62.2-.82.22-2,.22h-2.63l.59-3.51h5.9ZM341.68,28.26l-12.65,12.65v1.41h14.05v-14.05h-1.41ZM136.97,112s-9.94-9.77-11.14-12.65c-.6-1.44,1.26-1.32,4.1-2.28,3.98-1.35,5.95-3.55,7.61-6.44,2.2-3.81,3.37-9.62-2.61-11.64-.98-.33-1.3-.37-3.2-.4l-40.97-.57-15.17,33.98h24.68s2.92-7.89,4.28-9.96c.42-.64,1.01-.53,1.66.3,1.88,2.4,6.54,9.66,6.54,9.66h24.22ZM113.16,92.79l-5.53-.11,1.28-4.1h5.99c2.72.25,1.82,4.13-1.74,4.21ZM172.09,108.06v3.95h19.33l-8.79-33.97h-22.44l-22.64,33.97,21.37-.04,1.84-3.91h11.34ZM163.74,100.29s4.65-6.14,5.07-6.14h.94v6.14h-6.01ZM223.26,86.38c1.2-.13,1.54-.14,3.44-.14h13.99l2.85-7.61-31.28-.55c-1.9-.03-2.21-.02-3.11.14-.67.12-1.29.42-1.91.7-4.47,1.97-4.77,1.75-6.27,4.78-3.08,6.24-8.8,19.63-8.68,21.19.1,1.24,3.13,5.03,4.99,6.24.39.25.81.51,1.26.66.61.2.89.22,2.79.22h28.83l4.22-9.96s-12.59,1.01-17,0c-1.06-.24-2.61-1.07-3.12-2.14-.86-1.84,3.5-9.14,4.98-11.33.83-1.23,1.75-1.95,4.02-2.2ZM259.55,112l13.62-33.97h-23.56l-14.7,33.97h24.64ZM306.63,78.03l-6.07,13-6.02-12.99h-16.65l-13.62,33.97h21.91l4.43-11.94,5.1,11.94h20.28l13.19-33.97h-22.55ZM357.73,99.12s.04,1.08,0,1.87c-.07,1.32-.6,2.08-1.56,2.23-5.92.93-12.09.42-11.62-2.4.64-3.8,5.34-13.96,5.34-13.96l25.6-.14,5.41-8.69h-37.68c-1.9,0-2.31.05-4.16.5-3.77.91-6.2,2.56-7.4,4.19-1.6,2.18-7.12,16.31-7.91,20.26-.43,2.17.75,7.51,4.78,8.8.61.2.89.22,2.79.19l38.46.13,8.09-19.43h-22.7l-2.79,6.44h5.33Z"/>
  </g>
</svg>