<?xml version="1.0" encoding="UTF-8"?>
<svg id="Calque_2" data-name="Calque 2" xmlns="http://www.w3.org/2000/svg" viewBox="0 0 272.21 135.13">
  <defs>
    <style>
      .cls-1 {
        fill: #fff;
      }
    </style>
  </defs>
  <g id="Layer_1" data-name="Layer 1">
    <path class="cls-1" d="M269.17,53.39c-1.8-2.24-2.92-5.9-4.13-8.64-1.65-3.76,6.4-10.95.65-12.97.2-.6.42-1.79-.12-2.88l-19.52-.05-3.05-1.97c.47-.07,1.16.02,1.51-.09.47-.15.66-1.08.41-1.38-.23-.28-.98-.44-1.58-.8C216.17,8.18,186.3,2.67,155.01.46c-9.28-.65-17.94-.58-27.19,0-26.15,1.67-51.57,5.96-75.38,17.03C29.19,28.3,4.3,48.67,14.15,74.16c1.34,3.46,2.86,7.38,5.64,9.23.16.52.21,1.59.57,2.07.61.81,1.61,1.1,2.52.96.1,1.96-1.64,1.83-2.18,2.58-.7-.51-1.69-.82-2.1-.57l.06-.86c.1-1.03-.79-1.88-1.81-2.13l-.02-.97c-.11-4.97-6.9-8.3-5.91-25.8.02-.29.05-.8-.06-1.03,1.49-1.81,1.35-4.84.58-6.98-.7,1.24-1.03,1.68-1.65,2-.26-2.92,2.28-4.76,2.88-8.83-5.16,4.3-8.56,10.74-11.21,17.34-.78,1.94-.45,3.86-.85,5.41-2.05,7.92,1.32,16.75,6.13,23.12,1.72,2.28,2.66,5.1,5.32,6.75.9.56,1.66,1.92,3.14,2.09-.62,1.14-1.14,2.49-2.38,3.37,1.75,1.93,3.43,1.25,4.99,1.45-.71,2.77,4.43,3.75,10.22,3.99,2.64,3.32,6.97,4.91,10.83,6.67-.22,1.93,1.12,2.49,2.9,3.32,19.04,8.98,39.27,13.57,60.13,16.37,3.81.51,7.2.29,10.61.37l1,.02c.12.67.85,1.03,1.95,1.03h34.96c1.1,0,1.83-.36,1.96-1.01l6.91.1c1.94.03,3.69-.83,5.01-.86,5.56-.12,23.57-3.75,26.85-5.39,1.75.35,3.91.56,5.07-.81h.99c.82-.03,1.69-.19,1.99-1h1c.82-.01,1.68-.19,2-.98,5.88-.7,11.2-3.46,16.91-5.91,2.73-1.17,5.97-1.4,6.99-4.29,2,.24,3.44-.76,5.09-1.62.99-.52,2.63-.43,2.89-2.08l.99-.03c.96-.03,1.68-1.04,2-1.96.25-.08.76-.02,1.03-.03,2.79-1.07,5.39-3.32,6.91-5.97l1.09.06c2.6-1.93,5.03-4.34,6.96-6.93l-.05-1.06c.52-.17,1.12-.44,1.56-.95.5-.57.03-1.52-.64-2.22,2.47-3.03,5.98-5.56,6.04-9.69v-1.07s.97-.07.97-.07c-.15,1.11,1,1.21,1,.07.83.01,1.84-.3,2.55-.57,5.43,5.98,11.51-18.98,4.67-27.48ZM40.76,40.72c.02.83-.38,1.52-.92,2.13-.19-.83.11-1.79.92-2.13ZM29.71,82.47c-2.83-.6-4.95.76-5.82,2.99-1.76-.25-.84-2.39-.59-3.3-2.14-10.14.02-21.71,6.57-30.4,1.91-1.11,3.74-2.76,3.89-5.13,1.44-1.67,2.56-3.54,5.18-2.78-3.17,3.61-5.77,8.41-5.9,13.7-.12,4.68,2.89,7.68,5.56,10.17,1.5,1.4,2.27,2.04,4.1,2.97,4.33,4.82,10.59,7.2,17.36,8.23-1.03,2.49-2.35,3.49-3.54,4.48-8.69,1.78-17.61,1.45-26.83-.94ZM205.29,111.45c-14.2,5.18-28.97,8.56-43.97,10.67l-6.89.97c-3.87.55-7.32.86-11.12.86l-22.85.04c-5.21,0-10.05-1.41-14.93-.75-.84-1.43-2.58-.96-3.96-1.07l-6.65-.56c-15.2-2.91-30.42-6.58-44.42-13.18l1.24-.15c1.11,0,2.21-.19,2.99-.99h4.98s1.99-1.06,1.99-1.06c1.45.59,2.96-.28,4.07-.81.75-.35,2.4.22,2.9-1.1l1.01-.02c.82-.01,1.69-.18,1.99-.98h1c.82-.01,1.68-.19,1.99-.99.3.03.7.05.99-.02.47-.11.86-.52,1-.98h1c.42-.23.77-.57,1.05-.94l7.85-4.27c.48,3.55-3.53,7.77-1.35,8.07.82.11,1.64.03,2.36.07l1.06.06c.37.27.74.61.98,1,.31.51.88,1.02,1.98,1.02l52.76-.05c.73,0,1.14-.6,1.08-.99h1.99s2.99.01,2.99.01c.84,0,1.69-.16,2.06-1.11,9.81-2.27,16.91-5.12,23.31-13.38,2.59-3.34,4.19-5.48,3.65-10.64-.21-2,.32-5.14-2.29-5.63-.1-.64-.73-1.57-1.09-2.09.14-1.97-1.95-3.76-3.84-4.77,6.58-2.78,11.01-8.01,16.51-12.45,3.66-2.96,9.82-1.11,13.77-1.51-1.2,2.78-2.68,5.88-3.29,8.86-.42,0-1,.57-.95,1.02.07.6.22,1.37-.05,1.84-2.67,4.63-4.91,9.75-5.83,15.02-2.82,3.34-3.82,7.97-5.24,12.08-1.94,3.62-3.59,7.35-5.04,11.53l4.19.19c.16,1.46,1.48,2.96,3,2.95l6.96-.02,2.99-.9,16.15.25c-3.2,1.88-6.52,3.62-10.05,4.91ZM70.36,54.94l.29-1.3c.94-.33,1.67-1.03,2.01-1.96l1.08-.04c7.82-2.38,16.84-.36,24.96.76,5.53.77,6.94-11.14,11.93-14.57l-9.3,24.67-4.79,11.63c-1.37-1.32-2.29-3.32-4.22-3.25-.51-2.68-2.02-3.81-3.59-5.42-1.63-1.68-3.14-2.24-5.76-3.66l-12.61-6.87ZM143.82,74.32c.11.15.2.34.19.48-.17,3.19-1.04,6.68-3.77,8.66-3.4,2.47-7.77,3.14-11.84,3.15l4.45-9.74c1.59-3.38,8.03-1.27,10.97-2.55ZM139.94,58.08l.43-3.47c2.52.12,2.8-3.33,4.18-4.62,2.71-2.53,6.98-1.03,9.63-1.23-.02,7.43-8.08,10.69-14.24,9.32ZM198.42,28.88c-2.88,4.1-5.07,8.09-9.06,11.02-2-6.35-7.63-10.68-14.45-10.73l-60.16-.41c-1.17,2.91-1.59,5.44-3.32,6.97-.44-.83-.85-1.85-.91-2.88-.04-.69.1-1.57-.27-2.33-.39-.81-1.51-1.28-2.97-1.61-17.33-3.89-35.59-2.3-52.18,4.15-2.69,1.04-4.62,3.11-7.32,2.71,8.81-6.18,18.63-10.44,28.89-13.92.63-.21,1.65.05,1.97-.96l1-.03c1.8-.05,3.71-.62,4.98-1.94l1.01-.03c1.1-.03,2.44.11,2.97-.97l1.01-.03c1.09-.03,2.44.11,2.97-.96l1.01-.03c1.09-.03,2.44.11,3-1.02l2.97.03c1.25.01,2.71-1.1,3.72-1.39,2.43.66,5.77-.12,8.2-.65l4.06-.89c2.23-.49,5.04.58,6.95-.99.24-.1.76-.05,1.02-.05h7.94s25.92.04,25.92.04l7.9.19c1.56.04,3.23,1.21,5.06.81.74-.16,2.26-.26,2.94.05,1.28.58,2.6.68,3.99.87,15.62,2.05,35.67,7.05,48.92,14.92l-27.75.07ZM247.95,80.43c-1.84,3.14-4.62,6.31-7.16,8.96-4.37,4.56-9.14,8.38-14.91,11.65-.48.31-.83,1.43-.99,1.56-1.54.19-4.49.85-5.52,1.95.25-1.18.58-2.19.76-3.22.82-.79,1.05-1.87,1.02-2.98.45-.12.86-.52.96-1,.06-.29.07-.69.01-.98,1.07-.56,1.23-1.9.91-3.06,1.23-2.08,2.85-4.43,3-6.88,1.15-1.06,1.59-2.56,2.03-3.98.09-.28.08-.68.04-.97.75-.37,1.07-1.19.98-2,2.04-4.15,3.81-8.46,5.05-12.89.41-.14.82-.54.92-1.02.06-.29.06-.69.01-.99,1.07-.55,1.22-1.89.98-3,2.39-2.09.89-6.95,5-6.96h11.09c2.2,8.65.36,18.03-4.19,25.81Z"/>
  </g>
</svg>