<?xml version="1.0" encoding="UTF-8"?>
<svg id="Calque_2" data-name="Calque 2" xmlns="http://www.w3.org/2000/svg" viewBox="0 0 313.77 35.42">
  <defs>
    <style>
      .cls-1 {
        fill-rule: evenodd;
      }

      .cls-1, .cls-2 {
        fill: #fff;
      }
    </style>
  </defs>
  <g id="Layer_1" data-name="Layer 1">
    <path class="cls-1" d="M310.43,0c-1.92,0-3.43,1.41-3.43,3.33,0,2.02,1.51,3.43,3.43,3.43,1.82,0,3.33-1.41,3.33-3.43s-1.51-3.33-3.33-3.33ZM310.43,6.16c-1.61,0-2.72-1.21-2.72-2.83,0-1.51,1.11-2.72,2.72-2.72,1.51,0,2.72,1.21,2.72,2.72,0,1.62-1.21,2.83-2.72,2.83Z"/>
    <path class="cls-1" d="M310.94,3.63c.61-.1,1.01-.4,1.01-1.11h0c0-.71-.4-1.11-1.41-1.11h-1.41v3.93h.6v-1.72h.6l1.11,1.72h.6l-1.11-1.72ZM309.73,3.13v-1.21h.81c.4,0,.81.1.81.6,0,.61-.4.61-.91.61h-.71Z"/>
    <g>
      <path class="cls-2" d="M89.62,2.32h-29.57c-4.54,0-8.17,3.63-8.17,7.97v16.95c-.02,4.5,3.61,8.15,8.11,8.17.02,0,.05,0,.07,0h29.57c1.11,0,1.92-.81,1.92-1.92v-5.75c0-1.11-.81-1.92-1.92-1.92h-23.11c-1.01,0-1.82-.71-1.82-1.72,0-.91.81-1.72,1.82-1.72h23.11c1.01,0,1.92-.81,1.92-1.82v-3.53c0-1.01-.91-1.82-1.92-1.82h-23.11c-1.01,0-1.82-.81-1.82-1.72,0-1.01.81-1.72,1.82-1.72h23.11c1.11,0,1.92-.81,1.92-1.92v-5.65c0-1.11-.81-1.92-1.92-1.92Z"/>
      <path class="cls-2" d="M249.07,2.22h-26.14c-4.54,0-8.17,3.63-8.17,7.97v16.95c-.02,4.5,3.61,8.16,8.11,8.17.02,0,.04,0,.07,0h26.14c4.5.02,8.16-3.61,8.17-8.11,0-.02,0-.04,0-.07V10.19c0-4.34-3.63-7.97-8.17-7.97ZM241.91,24.12c0,.91-.71,1.61-1.62,1.61h-8.58c-.88.01-1.61-.69-1.62-1.57,0-.01,0-.03,0-.04v-10.8c0-.91.71-1.61,1.62-1.61h8.58c.91,0,1.62.7,1.62,1.61v10.8Z"/>
    </g>
    <path class="cls-1" d="M297.11,2.22h-26.24c-4.44,0-8.07,3.63-8.07,7.97v16.95c0,4.54,3.63,8.17,8.07,8.17h26.24c4.44,0,8.07-3.64,8.07-8.17V10.19c0-4.34-3.63-7.97-8.07-7.97ZM289.85,24.12c0,.91-.71,1.61-1.61,1.61h-8.48c-.88.01-1.61-.69-1.62-1.57,0-.01,0-.03,0-.04v-10.8c0-.91.71-1.61,1.62-1.61h8.48c.91,0,1.61.7,1.61,1.61v10.8Z"/>
    <path class="cls-1" d="M200.33,2.22h-13.32c-1.21,0-2.72.61-3.43,1.51l-15.64,17.46c-.91,1.01-.71,2.62.81,2.62h12.31c.91-.1,1.92-.3,2.52-1.11l8.88-9.99c1.11-1.31,2.62-.51,2.62.4v11c0,.91-.71,1.61-1.61,1.61h-27.65c-1.01,0-2.22.4-2.72.91l-5.65,6.56c-.81.71-.5,2.12.61,2.12h42.29c4.44,0,8.07-3.64,8.07-8.17V10.19c0-4.34-3.64-7.97-8.07-7.97h0ZM146.84,32.8L121.31,3.83c-.61-.91-2.12-1.51-3.43-1.51h-13.32c-4.44,0-8.07,3.63-8.07,7.97v16.95c0,4.54,3.63,8.17,8.07,8.17h22.81c1.21,0,1.51-1.41.71-2.12l-5.75-6.56c-.5-.5-1.61-.91-2.72-.91h-8.17c-.88.01-1.6-.69-1.61-1.57,0-.01,0-.03,0-.04v-11c0-.91,1.51-1.72,2.62-.4l18.77,21.5c.71.71,1.61,1.01,2.52,1.11h12.31c1.52,0,1.72-1.61.81-2.62h0ZM43.3,15.24h-23.11c-1.01,0-1.72-.81-1.72-1.72,0-1.01.71-1.72,1.72-1.72l23.11-.1c1.01,0,1.92-.81,1.92-1.82v-5.75c0-1.01-.91-1.92-1.92-1.92l-29.87.1c-4.54,0-8.17,3.63-8.17,7.97v10.29c0,1.01.81,1.82,1.92,1.82h20.99c.91,0,1.72.81,1.72,1.72s-.81,1.72-1.72,1.72H1.92c-1.01,0-1.92.81-1.92,1.92v5.75c0,1.11.91,1.92,1.92,1.92h35.12c4.5.02,8.15-3.61,8.17-8.1,0-.02,0-.04,0-.07v-10.19c0-1.01-.81-1.82-1.92-1.82h0ZM152.39,4.44c-5.75,0-10.5,4.74-10.5,10.39s4.74,10.6,10.5,10.6,10.4-4.74,10.4-10.6-4.65-10.39-10.4-10.39Z"/>
  </g>
</svg>