<?xml version="1.0" encoding="UTF-8"?>
<svg id="Calque_2" data-name="Calque 2" xmlns="http://www.w3.org/2000/svg" viewBox="0 0 265.46 80.01">
  <defs>
    <style>
      .cls-1 {
        fill: #fff;
      }
    </style>
  </defs>
  <g id="Layer_1" data-name="Layer 1">
    <g>
      <path class="cls-1" d="M99.14,66.08l-5.6,9.91-1.25-9.91h-3.95s-2.89,13.62-2.89,13.62h2.54s2.26-11.22,2.26-11.22l1.19,11.23,2.46-.03,5.98-10.81-2.33,10.82c1.09.1,1.84.1,2.72,0l2.88-13.6h-4.02Z"/>
      <polygon class="cls-1" points="128.67 76.07 124.31 66.07 121.03 66.08 118.14 79.71 120.74 79.67 122.95 68.97 127.34 79.7 130.44 79.7 133.32 66.09 130.73 66.07 128.67 76.07"/>
      <path class="cls-1" d="M64.12,65.77c-2.68-.08-5.18.82-6.77,3-1.51,2.08-2.05,4.76-1.36,7.24.72,2.58,3.09,3.95,5.74,3.99,2.77.04,5.42-.97,6.94-3.39,1.15-1.84,1.5-3.96,1.21-6.02-.41-2.9-2.84-4.73-5.75-4.82ZM66.12,75.51c-.93,1.64-2.64,2.51-4.6,2.22-1.27-.18-2.21-.94-2.58-2.11-.6-1.85-.27-3.9.77-5.55,1.07-1.69,3.04-2.48,4.97-1.94,2.92.82,2.87,4.85,1.44,7.37Z"/>
      <path class="cls-1" d="M81.25,66.13l-7.1-.06-2.88,13.64h2.7s1.17-5.48,1.17-5.48l4.07.02c.33,0,.86.23,1.02.46.17.23.26.91.22,1.2l-.49,3.82h2.71s.48-3.61.48-3.61c.15-1.1-.03-2.18-1.06-2.92,1.94-.64,2.89-2.2,2.68-4.05-.18-1.61-1.65-3.01-3.51-3.02ZM81.62,70.99c-.24.44-1.04.96-1.69.97l-4.33.1.77-3.84h3.59c.51.02,1.28.26,1.61.7.49.65.38,1.46.05,2.07Z"/>
      <path class="cls-1" d="M205.07,66.09l-6.9-.02-2.88,13.64h2.7s1.15-5.46,1.15-5.46h3.97c.37,0,.95.25,1.14.5.17.22.25.88.21,1.16l-.54,3.83h2.73s.52-3.79.52-3.79c.15-1.07-.11-2.08-1.13-2.74,1.4-.44,2.32-1.34,2.62-2.51.33-1.28.1-2.52-.82-3.5-.75-.59-1.76-1.1-2.77-1.1ZM205.72,70.81c-.22.51-.97,1.13-1.74,1.15l-4.37.1.79-3.84,3.49.02c.39,0,1.15.19,1.46.44.7.56.65,1.46.36,2.13Z"/>
      <path class="cls-1" d="M37.95,66.14l-7.18-.08-2.88,13.61,2.69.05,1.16-5.48h4.01c.36,0,.93.26,1.11.52.15.23.24.85.2,1.17l-.53,3.8h2.75s.48-3.64.48-3.64c.15-1.1-.04-2.16-1.1-2.89,1.92-.61,2.89-2.07,2.73-3.93-.13-1.6-1.54-3.1-3.44-3.12ZM38.28,70.9c-.84,1.56-3.75,1.08-6.08,1.16l.79-3.84,3.5.03c.53,0,1.26.22,1.66.65.48.52.41,1.46.12,2Z"/>
      <polygon class="cls-1" points="27.42 68.32 27.91 66.07 17.44 66.08 14.56 79.74 25.35 79.75 26.16 77.45 17.73 77.44 18.49 73.74 25.9 73.74 26.37 71.46 19.02 71.46 19.65 68.31 27.42 68.32"/>
      <polygon class="cls-1" points="148.86 79.75 159.67 79.75 160.45 77.44 152.03 77.44 152.8 73.74 160.19 73.74 160.68 71.47 153.31 71.46 153.96 68.32 161.74 68.31 162.2 66.07 151.75 66.08 148.86 79.75"/>
      <path class="cls-1" d="M231.28,68.23c.63.26,1,.86,1.18,1.55h2.66c0-1.43-.86-2.79-2.34-3.39-2.03-.84-4.47-.86-6.51,0-1.99.84-3.06,3.05-2.12,4.98.41.85,1.46,1.43,2.34,1.7l3.78,1.17c.76.24,1.32.92,1.33,1.61.01.68-.37,1.35-1.09,1.64-2.08.86-5.14.41-5.56-1.94h-2.73c.08,2.11,1.53,3.66,3.55,4.15,2.07.51,4.65.38,6.58-.61,2.11-1.08,2.93-3.99,1.3-5.81-2.09-2.33-7.65-1.6-6.88-4.1.44-1.42,2.73-1.71,4.5-.97Z"/>
      <path class="cls-1" d="M187.49,66.09l-8.21,13.61,2.94.05,2.15-3.51h5.85s.66,3.49.66,3.49l2.84-.02-2.73-13.63h-3.5ZM185.62,73.94l3.2-5.76.99,5.77h-4.19Z"/>
      <path class="cls-1" d="M110.36,66.07l-8.21,13.59c1.05.14,2.06.14,2.98,0l2.12-3.44h5.83s.68,3.52.68,3.52l2.83-.05-2.73-13.62h-3.49ZM108.48,73.94l3.2-5.69,1.01,5.69h-4.2Z"/>
      <path class="cls-1" d="M181.27,70.34c.21-2.16-1.36-4.17-3.68-4.19l-6.9-.07-2.88,13.64h2.71s1-4.97,1-4.97h4.13c.98,0,1.95-.24,2.8-.48,1.73-.65,2.83-2.08,2.83-3.93ZM178.27,71.27c-.24.58-1.12,1.2-1.98,1.21l-4.3.08.94-4.35,3.21.03c.55,0,1.41.2,1.84.62.69.65.62,1.6.29,2.4Z"/>
      <path class="cls-1" d="M10.23,66.14l-6.85-.06-2.88,13.62h2.72s.99-4.94.99-4.94l4.24-.02c1.26,0,2.44-.34,3.46-.82,1.29-.83,2.05-2.01,2.05-3.56.23-2.19-1.39-4.2-3.73-4.22ZM11.04,71.09c-.24.71-1.07,1.36-1.98,1.38l-4.38.1.93-4.35,3.19.02c.45,0,1.25.17,1.64.44.88.62.87,1.59.6,2.4Z"/>
      <path class="cls-1" d="M143.51,68.22c1.01.36,1.55,1.26,1.74,2.32h2.91c-.09-2.18-1.51-3.95-3.67-4.49-2.66-.67-5.5-.15-7.48,1.79-2.23,2.18-3,5.43-2.2,8.4.53,1.95,2.07,3.24,4.08,3.61,3.71.67,7.37-.72,8.49-4.41h-2.94c-.63,1.55-1.98,2.41-3.73,2.37-1.55-.03-2.72-.9-3.06-2.31-.43-1.83-.14-3.74.82-5.37,1.03-1.76,3.1-2.59,5.05-1.89Z"/>
      <polygon class="cls-1" points="42.18 79.71 44.89 79.72 46.06 74.12 53.29 74.11 53.72 71.85 46.55 71.84 47.3 68.31 55.02 68.31 55.49 66.08 45.06 66.07 42.18 79.71"/>
      <path class="cls-1" d="M222.79,66.08h-12.12s-.49,2.23-.49,2.23h4.69s-2.4,11.39-2.4,11.39c.92.09,1.87.1,2.76-.04l2.36-11.34h4.73s.46-2.24.46-2.24Z"/>
      <polygon class="cls-1" points="120.94 0 118.06 5.75 114.92 12.1 111.9 18.21 108.77 24.55 106.67 28.75 117.72 34.15 131.55 40.91 127.06 47.81 6.43 47.81 0 61.28 142.32 61.28 158.37 31.63 131.66 18.49 134.29 13.3 140.75 13.41 202.64 13.55 258.12 13.66 265.11 .94 265.46 0 120.94 0"/>
      <polygon class="cls-1" points="35.92 39.93 45.11 35.5 54.04 31.18 56.77 29.9 60.7 33.67 65.32 38.05 69.85 42.42 91.57 42.43 92.74 40.09 95.41 34.66 98.04 29.32 100.55 24.22 103.34 18.55 105.85 13.44 108.48 8.11 110.93 3.13 112.05 .85 112.38 0 91.05 0 83.5 14.83 79.17 23.44 77.13 21.55 74.74 19.36 72.34 17.17 69.94 14.98 67.55 12.8 66.12 11.51 39.51 23.18 40.99 20 44.25 13.45 47.38 7.09 50.55 .77 50.86 0 29.04 0 8.37 42.4 30.72 42.43 35.92 39.93"/>
      <polygon class="cls-1" points="233.74 18.69 230.13 20.4 217.32 26.63 207.75 31.29 206.23 29.89 202.4 26.26 198.29 22.39 194.45 18.69 174.68 18.7 172.79 18.88 171.74 21.03 169.74 25.11 167.46 29.77 165.29 34.2 163.01 38.87 160.84 43.29 158.56 47.96 156.39 52.38 154.08 57.11 152.03 61.28 173.48 61.28 178.64 51.03 185.3 37.85 186.92 39.31 189.05 41.25 191.28 43.27 193.5 45.29 195.72 47.31 198.34 49.7 224.92 37.98 223.42 41.23 220.74 46.66 218.11 52 215.38 57.55 213.64 61.11 235.46 61.12 256.05 18.66 252.6 18.63 233.74 18.69"/>
    </g>
  </g>
</svg>