<?xml version="1.0" encoding="UTF-8"?>
<svg id="Calque_2" data-name="Calque 2" xmlns="http://www.w3.org/2000/svg" viewBox="0 0 183.32 39.92">
  <defs>
    <style>
      .cls-1 {
        fill: #fff;
      }
    </style>
  </defs>
  <g id="Layer_1" data-name="Layer 1">
    <g>
      <path class="cls-1" d="M19.96,0C8.94,0,0,8.93,0,19.96s8.94,19.96,19.96,19.96,19.96-8.94,19.96-19.96c0-11.02-8.94-19.96-19.96-19.96ZM19.96,37.66c-9.78,0-17.71-7.93-17.71-17.7S10.18,2.25,19.96,2.25s17.71,7.93,17.71,17.71-7.93,17.7-17.71,17.7h0Z"/>
      <path class="cls-1" d="M34.46,27.99l-2.9-3.38c-.15-.17-.39-.22-.59-.12-.77.37-1.69.04-2.06-.73-.06-.12-.1-.25-.12-.38h0c-.21-1.13-.9-2.1-1.89-2.67l-1.3-.75,7.38-4.26-.91-1.58-8.29,4.79-1-.57v-1.15l8.29-4.79-.91-1.58-7.38,4.26v-1.5c0-1.14-.5-2.23-1.37-2.98-.65-.55-.72-1.53-.17-2.17.09-.1.19-.19.3-.27.19-.13.26-.36.19-.57l-1.48-4.2c-.05-.16-.23-.25-.39-.19-.09.03-.16.1-.19.19l-1.48,4.2c-.07.21,0,.45.19.57h0c.7.48.88,1.45.39,2.15-.08.11-.16.21-.27.3-.87.74-1.37,1.83-1.37,2.98v1.5l-7.38-4.26-.91,1.58,8.29,4.79v1.15l-1,.57-8.29-4.79-.91,1.58,7.38,4.26-1.3.75c-.99.57-1.68,1.55-1.89,2.67-.16.84-.97,1.39-1.8,1.23-.13-.02-.26-.07-.37-.12-.2-.1-.44-.05-.59.12l-2.9,3.38c-.09.1-.1.24-.04.36.07.11.2.17.33.15l4.38-.82c.22-.04.39-.23.4-.45.07-.85.81-1.48,1.66-1.41.13.01.26.04.39.08,1.08.38,2.27.27,3.26-.3l1.3-.75v8.52h1.83v-9.57l1-.58,1,.58v9.57h1.83v-8.52l1.3.75c.99.57,2.18.69,3.26.3.8-.28,1.68.14,1.97.94.04.13.07.26.08.39.02.22.18.41.4.45l4.38.82c.13.02.26-.03.33-.15.06-.12.05-.26-.04-.36h0ZM17.13,22.74l-2.43,1.4c-.48.28-1.08.11-1.36-.36h0c-.28-.48-.11-1.09.37-1.36l2.43-1.41,1,.58v1.15h0ZM18.96,13.31c-.01-.55.42-1.01.97-1.02.55-.01,1.01.42,1.02.97,0,.02,0,.03,0,.05v2.81l-1,.57-1-.57v-2.81ZM21.1,20.62l-1.15.66-1.15-.66v-1.32l1.15-.66,1.15.66v1.32ZM26.58,23.78c-.28.48-.89.64-1.36.36l-2.43-1.41v-1.15l1-.58,2.43,1.41c.48.28.64.88.37,1.36Z"/>
      <path class="cls-1" d="M152.83,15.9h-6.66V2.59h-6.08v34.74h6.08v-15.26h6.66v15.26h6.22V2.59h-6.22v13.32ZM44.36,2.59l6.75,21.3v13.44h6.76v-14.13l7-20.61h-5.69l-4.59,13.53-4.16-13.53h-6.07ZM103.04,2.59l-2.91,16.53-3.38-16.53h-9.5v34.74h5.45V11.14l4.65,22.77h5.09l4.12-23.14v26.56h6.39V2.59h-9.9ZM177.59,2.59h-9.41l-6.35,34.74h5.63l1.35-8.08h7l1.31,8.08h6.2l-5.73-34.74ZM169.77,23.45l2.59-15.54,2.51,15.54h-5.1ZM122.07,2.59l-6.35,34.74h5.63l1.35-8.08h7l1.31,8.08h6.2l-5.73-34.74h-9.41ZM123.66,23.45l2.59-15.54,2.51,15.54h-5.1ZM69.22,2.59l-6.35,34.74h5.63l1.35-8.08h7l1.31,8.08h6.2l-5.73-34.74h-9.41ZM70.81,23.45l2.59-15.54,2.51,15.54h-5.1Z"/>
    </g>
  </g>
</svg>